<mxfile host="app.diagrams.net" agent="Mozilla/5.0 (Windows NT 10.0; Win64; x64) AppleWebKit/537.36 (KHTML, like Gecko) Chrome/136.0.0.0 Safari/537.36 Edg/136.0.0.0" version="27.0.1">
  <diagram id="R2lEEEUBdFMjLlhIrx00" name="Page-1">
    <mxGraphModel dx="989" dy="688" grid="1" gridSize="10" guides="1" tooltips="1" connect="1" arrows="1" fold="1" page="1" pageScale="1" pageWidth="850" pageHeight="1100" math="0" shadow="0" extFonts="Permanent Marker^https://fonts.googleapis.com/css?family=Permanent+Marker">
      <root>
        <mxCell id="0" />
        <mxCell id="1" parent="0" />
        <mxCell id="RuF7hdvSgTnVSEjehHBF-14" value="Customers" style="swimlane;childLayout=stackLayout;horizontal=1;startSize=50;horizontalStack=0;rounded=1;fontSize=14;fontStyle=0;strokeWidth=2;resizeParent=0;resizeLast=1;shadow=0;dashed=0;align=center;arcSize=4;whiteSpace=wrap;html=1;" vertex="1" parent="1">
          <mxGeometry x="40" y="20" width="160" height="160" as="geometry" />
        </mxCell>
        <mxCell id="RuF7hdvSgTnVSEjehHBF-15" value="&lt;ul&gt;&lt;li&gt;&lt;span style=&quot;color: light-dark(rgb(0, 0, 0), rgb(255, 255, 255)); background-color: rgb(255, 255, 255);&quot;&gt;Customer_ID (PK)&lt;/span&gt;&lt;/li&gt;&lt;li&gt;&lt;span style=&quot;color: light-dark(rgb(0, 0, 0), rgb(255, 255, 255)); background-color: rgb(255, 255, 255);&quot;&gt;Name&lt;/span&gt;&lt;/li&gt;&lt;li&gt;&lt;span style=&quot;color: light-dark(rgb(0, 0, 0), rgb(255, 255, 255)); background-color: rgb(255, 255, 255);&quot;&gt;Email&lt;/span&gt;&lt;/li&gt;&lt;li&gt;&lt;span style=&quot;color: light-dark(rgb(0, 0, 0), rgb(255, 255, 255)); background-color: rgb(255, 255, 255);&quot;&gt;Address&lt;/span&gt;&lt;/li&gt;&lt;li&gt;&lt;span style=&quot;color: light-dark(rgb(0, 0, 0), rgb(255, 255, 255)); background-color: rgb(255, 255, 255);&quot;&gt;Phone&lt;/span&gt;&lt;/li&gt;&lt;/ul&gt;" style="align=left;strokeColor=none;fillColor=none;spacingLeft=4;spacingRight=4;fontSize=12;verticalAlign=top;resizable=0;rotatable=0;part=1;html=1;whiteSpace=wrap;" vertex="1" parent="RuF7hdvSgTnVSEjehHBF-14">
          <mxGeometry y="50" width="160" height="110" as="geometry" />
        </mxCell>
        <mxCell id="RuF7hdvSgTnVSEjehHBF-16" style="edgeStyle=orthogonalEdgeStyle;rounded=0;orthogonalLoop=1;jettySize=auto;html=1;exitX=0.5;exitY=1;exitDx=0;exitDy=0;" edge="1" parent="RuF7hdvSgTnVSEjehHBF-14" source="RuF7hdvSgTnVSEjehHBF-15" target="RuF7hdvSgTnVSEjehHBF-15">
          <mxGeometry relative="1" as="geometry" />
        </mxCell>
        <mxCell id="RuF7hdvSgTnVSEjehHBF-17" value="Orders" style="swimlane;childLayout=stackLayout;horizontal=1;startSize=50;horizontalStack=0;rounded=1;fontSize=14;fontStyle=0;strokeWidth=2;resizeParent=0;resizeLast=1;shadow=0;dashed=0;align=center;arcSize=4;whiteSpace=wrap;html=1;" vertex="1" parent="1">
          <mxGeometry x="270" y="320" width="170" height="170" as="geometry" />
        </mxCell>
        <mxCell id="RuF7hdvSgTnVSEjehHBF-18" value="&lt;ul&gt;&lt;li&gt;&lt;li&gt;&lt;span style=&quot;background-color: transparent; color: light-dark(rgb(0, 0, 0), rgb(255, 255, 255));&quot;&gt;Order_ID (PK)&lt;/span&gt;&lt;/li&gt;&lt;li&gt;&lt;span style=&quot;background-color: transparent; color: light-dark(rgb(0, 0, 0), rgb(255, 255, 255));&quot;&gt;Customer_ID (FK → Customers)&lt;/span&gt;&lt;/li&gt;&lt;li&gt;&lt;span style=&quot;background-color: transparent; color: light-dark(rgb(0, 0, 0), rgb(255, 255, 255));&quot;&gt;Order_Date&lt;/span&gt;&lt;/li&gt;&lt;li&gt;&lt;span style=&quot;background-color: transparent; color: light-dark(rgb(0, 0, 0), rgb(255, 255, 255));&quot;&gt;Status&lt;/span&gt;&lt;/li&gt;&lt;/li&gt;&lt;li&gt;&lt;span style=&quot;background-color: transparent; color: light-dark(rgb(0, 0, 0), rgb(255, 255, 255));&quot;&gt;Total_Price&lt;/span&gt;&lt;/li&gt;&lt;/ul&gt;&lt;div&gt;&lt;/div&gt;" style="align=left;strokeColor=none;fillColor=none;spacingLeft=4;spacingRight=4;fontSize=12;verticalAlign=top;resizable=0;rotatable=0;part=1;html=1;whiteSpace=wrap;" vertex="1" parent="RuF7hdvSgTnVSEjehHBF-17">
          <mxGeometry y="50" width="170" height="120" as="geometry" />
        </mxCell>
        <mxCell id="RuF7hdvSgTnVSEjehHBF-20" value="Products" style="swimlane;childLayout=stackLayout;horizontal=1;startSize=50;horizontalStack=0;rounded=1;fontSize=14;fontStyle=0;strokeWidth=2;resizeParent=0;resizeLast=1;shadow=0;dashed=0;align=center;arcSize=4;whiteSpace=wrap;html=1;" vertex="1" parent="1">
          <mxGeometry x="510" y="10" width="210" height="270" as="geometry" />
        </mxCell>
        <mxCell id="RuF7hdvSgTnVSEjehHBF-21" value="&lt;ul&gt;&lt;li&gt;&lt;p&gt;&lt;font style=&quot;font-size: 15px;&quot;&gt;&lt;strong style=&quot;&quot;&gt;Product_ID&lt;/strong&gt; (PK)&lt;/font&gt;&lt;/p&gt;&lt;/li&gt;&lt;li&gt;&lt;p&gt;&lt;font style=&quot;font-size: 15px;&quot;&gt;Name&lt;/font&gt;&lt;/p&gt;&lt;/li&gt;&lt;li&gt;&lt;p&gt;&lt;font style=&quot;font-size: 15px;&quot;&gt;Description&lt;/font&gt;&lt;/p&gt;&lt;/li&gt;&lt;li&gt;&lt;p&gt;&lt;font style=&quot;font-size: 15px;&quot;&gt;Size&lt;/font&gt;&lt;/p&gt;&lt;/li&gt;&lt;li&gt;&lt;p&gt;&lt;font style=&quot;font-size: 15px;&quot;&gt;Color&lt;/font&gt;&lt;/p&gt;&lt;/li&gt;&lt;li&gt;&lt;p&gt;&lt;font style=&quot;font-size: 15px;&quot;&gt;Price&lt;/font&gt;&lt;/p&gt;&lt;/li&gt;&lt;li&gt;&lt;p&gt;&lt;font style=&quot;font-size: 15px;&quot;&gt;Quantity&lt;/font&gt;&lt;/p&gt;&lt;/li&gt;&lt;/ul&gt;" style="align=left;strokeColor=none;fillColor=none;spacingLeft=4;spacingRight=4;fontSize=12;verticalAlign=top;resizable=0;rotatable=0;part=1;html=1;whiteSpace=wrap;" vertex="1" parent="RuF7hdvSgTnVSEjehHBF-20">
          <mxGeometry y="50" width="210" height="220" as="geometry" />
        </mxCell>
        <mxCell id="RuF7hdvSgTnVSEjehHBF-24" value="Order_Items" style="swimlane;childLayout=stackLayout;horizontal=1;startSize=50;horizontalStack=0;rounded=1;fontSize=14;fontStyle=0;strokeWidth=2;resizeParent=0;resizeLast=1;shadow=0;dashed=0;align=center;arcSize=4;whiteSpace=wrap;html=1;" vertex="1" parent="1">
          <mxGeometry x="280" y="50" width="160" height="180" as="geometry" />
        </mxCell>
        <mxCell id="RuF7hdvSgTnVSEjehHBF-25" value="&lt;ul&gt;&lt;li&gt;&lt;strong style=&quot;background-color: transparent; color: light-dark(rgb(0, 0, 0), rgb(255, 255, 255));&quot;&gt;Order_ID&lt;/strong&gt;&lt;span style=&quot;background-color: transparent; color: light-dark(rgb(0, 0, 0), rgb(255, 255, 255));&quot;&gt; (FK → Orders)&lt;/span&gt;&lt;/li&gt;&lt;li&gt;&lt;strong style=&quot;background-color: transparent; color: light-dark(rgb(0, 0, 0), rgb(255, 255, 255));&quot;&gt;Product_ID&lt;/strong&gt;&lt;span style=&quot;background-color: transparent; color: light-dark(rgb(0, 0, 0), rgb(255, 255, 255));&quot;&gt; (FK → Products)&lt;/span&gt;&lt;/li&gt;&lt;li&gt;&lt;span style=&quot;background-color: transparent; color: light-dark(rgb(0, 0, 0), rgb(255, 255, 255));&quot;&gt;Quantity&lt;/span&gt;&lt;/li&gt;&lt;li&gt;&lt;span style=&quot;background-color: transparent; color: light-dark(rgb(0, 0, 0), rgb(255, 255, 255));&quot;&gt;Subtotal&lt;/span&gt;&lt;/li&gt;&lt;/ul&gt;" style="align=left;strokeColor=none;fillColor=none;spacingLeft=4;spacingRight=4;fontSize=12;verticalAlign=top;resizable=0;rotatable=0;part=1;html=1;whiteSpace=wrap;" vertex="1" parent="RuF7hdvSgTnVSEjehHBF-24">
          <mxGeometry y="50" width="160" height="130" as="geometry" />
        </mxCell>
        <mxCell id="RuF7hdvSgTnVSEjehHBF-27" value="Payments" style="swimlane;childLayout=stackLayout;horizontal=1;startSize=50;horizontalStack=0;rounded=1;fontSize=14;fontStyle=0;strokeWidth=2;resizeParent=0;resizeLast=1;shadow=0;dashed=0;align=center;arcSize=4;whiteSpace=wrap;html=1;" vertex="1" parent="1">
          <mxGeometry x="40" y="290" width="160" height="210" as="geometry" />
        </mxCell>
        <mxCell id="RuF7hdvSgTnVSEjehHBF-28" value="&lt;ul&gt;&lt;li&gt;&lt;p&gt;&lt;strong&gt;Payment_ID&lt;/strong&gt; (PK)&lt;/p&gt;&lt;/li&gt;&lt;li&gt;&lt;p&gt;&lt;strong&gt;Order_ID&lt;/strong&gt; (FK → Orders)&lt;/p&gt;&lt;/li&gt;&lt;li&gt;&lt;p&gt;Payment_Method&lt;/p&gt;&lt;/li&gt;&lt;li&gt;&lt;p&gt;Payment_Status&lt;/p&gt;&lt;/li&gt;&lt;li&gt;&lt;p&gt;Transaction_Details&lt;/p&gt;&lt;/li&gt;&lt;/ul&gt;" style="align=left;strokeColor=none;fillColor=none;spacingLeft=4;spacingRight=4;fontSize=12;verticalAlign=top;resizable=0;rotatable=0;part=1;html=1;whiteSpace=wrap;" vertex="1" parent="RuF7hdvSgTnVSEjehHBF-27">
          <mxGeometry y="50" width="160" height="160" as="geometry" />
        </mxCell>
        <mxCell id="RuF7hdvSgTnVSEjehHBF-30" value="Shipping" style="swimlane;childLayout=stackLayout;horizontal=1;startSize=50;horizontalStack=0;rounded=1;fontSize=14;fontStyle=0;strokeWidth=2;resizeParent=0;resizeLast=1;shadow=0;dashed=0;align=center;arcSize=4;whiteSpace=wrap;html=1;" vertex="1" parent="1">
          <mxGeometry x="535" y="370" width="160" height="220" as="geometry" />
        </mxCell>
        <mxCell id="RuF7hdvSgTnVSEjehHBF-31" value="&lt;ul&gt;&lt;li&gt;&lt;p&gt;&lt;strong&gt;Shipping_ID&lt;/strong&gt; (PK)&lt;/p&gt;&lt;/li&gt;&lt;li&gt;&lt;p&gt;&lt;strong&gt;Order_ID&lt;/strong&gt; (FK → Orders)&lt;/p&gt;&lt;/li&gt;&lt;li&gt;&lt;p&gt;Shipping_Company&lt;/p&gt;&lt;/li&gt;&lt;li&gt;&lt;p&gt;Estimated_Delivery&lt;/p&gt;&lt;/li&gt;&lt;li&gt;&lt;p&gt;Shipping_Status&lt;/p&gt;&lt;/li&gt;&lt;/ul&gt;" style="align=left;strokeColor=none;fillColor=none;spacingLeft=4;spacingRight=4;fontSize=12;verticalAlign=top;resizable=0;rotatable=0;part=1;html=1;whiteSpace=wrap;" vertex="1" parent="RuF7hdvSgTnVSEjehHBF-30">
          <mxGeometry y="50" width="160" height="170" as="geometry" />
        </mxCell>
        <mxCell id="RuF7hdvSgTnVSEjehHBF-47" value="" style="edgeStyle=entityRelationEdgeStyle;fontSize=12;html=1;endArrow=ERoneToMany;rounded=0;entryX=-0.015;entryY=0.33;entryDx=0;entryDy=0;exitX=1;exitY=0.75;exitDx=0;exitDy=0;entryPerimeter=0;" edge="1" parent="1" source="RuF7hdvSgTnVSEjehHBF-15" target="RuF7hdvSgTnVSEjehHBF-18">
          <mxGeometry width="100" height="100" relative="1" as="geometry">
            <mxPoint x="120" y="220" as="sourcePoint" />
            <mxPoint x="260" y="280.75" as="targetPoint" />
            <Array as="points">
              <mxPoint x="108" y="200" />
              <mxPoint x="255" y="120.75" />
            </Array>
          </mxGeometry>
        </mxCell>
        <mxCell id="RuF7hdvSgTnVSEjehHBF-48" value="&lt;font style=&quot;font-size: 14px; color: rgb(0, 76, 153);&quot;&gt;one to many&lt;/font&gt;" style="edgeLabel;html=1;align=center;verticalAlign=middle;resizable=0;points=[];" vertex="1" connectable="0" parent="RuF7hdvSgTnVSEjehHBF-47">
          <mxGeometry x="-0.003" y="-4" relative="1" as="geometry">
            <mxPoint as="offset" />
          </mxGeometry>
        </mxCell>
        <mxCell id="RuF7hdvSgTnVSEjehHBF-51" style="edgeStyle=orthogonalEdgeStyle;rounded=0;orthogonalLoop=1;jettySize=auto;html=1;exitX=1;exitY=0.25;exitDx=0;exitDy=0;entryX=0.006;entryY=0.399;entryDx=0;entryDy=0;entryPerimeter=0;" edge="1" parent="1" source="RuF7hdvSgTnVSEjehHBF-18" target="RuF7hdvSgTnVSEjehHBF-31">
          <mxGeometry relative="1" as="geometry" />
        </mxCell>
        <mxCell id="RuF7hdvSgTnVSEjehHBF-52" style="edgeStyle=orthogonalEdgeStyle;rounded=0;orthogonalLoop=1;jettySize=auto;html=1;exitX=0;exitY=0.75;exitDx=0;exitDy=0;entryX=1;entryY=0.5;entryDx=0;entryDy=0;" edge="1" parent="1" source="RuF7hdvSgTnVSEjehHBF-18" target="RuF7hdvSgTnVSEjehHBF-28">
          <mxGeometry relative="1" as="geometry" />
        </mxCell>
        <mxCell id="RuF7hdvSgTnVSEjehHBF-53" value="" style="edgeStyle=entityRelationEdgeStyle;fontSize=12;html=1;endArrow=ERoneToMany;rounded=0;exitX=1;exitY=0;exitDx=0;exitDy=0;" edge="1" parent="1" source="RuF7hdvSgTnVSEjehHBF-18" target="RuF7hdvSgTnVSEjehHBF-25">
          <mxGeometry width="100" height="100" relative="1" as="geometry">
            <mxPoint x="250" y="420" as="sourcePoint" />
            <mxPoint x="350" y="320" as="targetPoint" />
            <Array as="points">
              <mxPoint x="430" y="420" />
              <mxPoint x="430" y="420" />
            </Array>
          </mxGeometry>
        </mxCell>
        <mxCell id="RuF7hdvSgTnVSEjehHBF-55" value="&lt;font style=&quot;font-size: 15px; color: rgb(0, 0, 153);&quot;&gt;one to many&lt;/font&gt;" style="edgeLabel;html=1;align=center;verticalAlign=middle;resizable=0;points=[];" vertex="1" connectable="0" parent="RuF7hdvSgTnVSEjehHBF-53">
          <mxGeometry x="0.1659" y="1" relative="1" as="geometry">
            <mxPoint as="offset" />
          </mxGeometry>
        </mxCell>
        <mxCell id="RuF7hdvSgTnVSEjehHBF-56" value="" style="edgeStyle=entityRelationEdgeStyle;fontSize=12;html=1;endArrow=ERoneToMany;rounded=0;entryX=1;entryY=0;entryDx=0;entryDy=0;exitX=0;exitY=0;exitDx=0;exitDy=0;" edge="1" parent="1" source="RuF7hdvSgTnVSEjehHBF-21" target="RuF7hdvSgTnVSEjehHBF-25">
          <mxGeometry width="100" height="100" relative="1" as="geometry">
            <mxPoint x="280" y="250" as="sourcePoint" />
            <mxPoint x="380" y="150" as="targetPoint" />
          </mxGeometry>
        </mxCell>
        <mxCell id="RuF7hdvSgTnVSEjehHBF-57" value="&lt;font style=&quot;font-size: 12px; color: rgb(0, 0, 153);&quot;&gt;many to one&lt;/font&gt;" style="edgeLabel;html=1;align=center;verticalAlign=middle;resizable=0;points=[];" vertex="1" connectable="0" parent="RuF7hdvSgTnVSEjehHBF-56">
          <mxGeometry x="-0.0096" y="2" relative="1" as="geometry">
            <mxPoint as="offset" />
          </mxGeometry>
        </mxCell>
      </root>
    </mxGraphModel>
  </diagram>
</mxfile>
